<svg xmlns="http://www.w3.org/2000/svg" viewBox="10 10 44 44" role="img" aria-label="IoTAPS">
  <defs>
    <linearGradient id="sphere" x1="0" y1="0" x2="0" y2="1">
      <stop offset="0%" stop-color="#9b6bff"/>
      <stop offset="100%" stop-color="#6d28d9"/>
    </linearGradient>
    <linearGradient id="ring" x1="0" y1="0" x2="1" y2="0">
      <stop offset="0%" stop-color="#7c3aed"/>
      <stop offset="50%" stop-color="#e9d5ff"/>
      <stop offset="100%" stop-color="#7c3aed"/>
    </linearGradient>
  </defs>
  <g transform="translate(32,32) rotate(-24)">
    <path d="M -22 0 A 22 6.6 0 0 1 22 0" fill="none" stroke="#7c3aed" stroke-width="1.4" stroke-linecap="round" opacity="0.45"/>
  </g>
  <circle cx="32" cy="32" r="11.5" fill="url(#sphere)"/>
  <path d="M 34 25 L 28.2 33.2 L 31.6 33.2 L 30 39 L 36 30.4 L 32.4 30.4 Z" fill="#ffffff"/>
  <g transform="translate(32,32) rotate(-24)">
    <path d="M 22 0 A 22 6.6 0 0 1 -22 0" fill="none" stroke="url(#ring)" stroke-width="2.2" stroke-linecap="round"/>
    <g transform="translate(22,0)">
      <circle r="1.9" fill="#c9a8ff" opacity="0.3"/>
      <path d="M 0 -2.2 L 0.6 -0.6 L 2.2 0 L 0.6 0.6 L 0 2.2 L -0.6 0.6 L -2.2 0 L -0.6 -0.6 Z" fill="#ffffff"/>
    </g>
  </g>
</svg>
